<mxfile host="app.diagrams.net" modified="2023-04-26T02:27:36.880Z" agent="Mozilla/5.0 (Windows NT 10.0; Win64; x64) AppleWebKit/537.36 (KHTML, like Gecko) Chrome/109.0.0.0 Safari/537.36" version="21.2.2" etag="BHn6wXMOIUr2dQAdc7sz" type="github">
  <diagram name="PÃ¡gina-1" id="HuRYOv_eFa8PnQI5oIeb">
    <mxGraphModel>
      <root>
        <mxCell id="0" />
        <mxCell id="1" parent="0" />
      </root>
    </mxGraphModel>
  </diagram>
</mxfile>
